<?xml version="1.0" encoding="UTF-8" standalone="no"?>
<!-- Generator: Adobe Illustrator 16.0.0, SVG Export Plug-In . SVG Version: 6.00 Build 0)  -->

<svg
   xmlns:dc="http://purl.org/dc/elements/1.1/"
   xmlns:cc="http://creativecommons.org/ns#"
   xmlns:rdf="http://www.w3.org/1999/02/22-rdf-syntax-ns#"
   xmlns:svg="http://www.w3.org/2000/svg"
   xmlns="http://www.w3.org/2000/svg"
   xmlns:sodipodi="http://sodipodi.sourceforge.net/DTD/sodipodi-0.dtd"
   xmlns:inkscape="http://www.inkscape.org/namespaces/inkscape"
   width="256"
   height="256"
   enable-background="new 0 0 283.46 283.46"
   version="1.1"
   viewBox="0 0 256 255.99999"
   xml:space="preserve"
   id="svg825"
   sodipodi:docname="icon.svg"
   inkscape:version="0.92.2 (5c3e80d, 2017-08-06)"><defs
     id="defs829" /><sodipodi:namedview
     pagecolor="#ffffff"
     bordercolor="#666666"
     borderopacity="1"
     objecttolerance="10"
     gridtolerance="10"
     guidetolerance="10"
     inkscape:pageopacity="0"
     inkscape:pageshadow="2"
     inkscape:window-width="1920"
     inkscape:window-height="1137"
     id="namedview827"
     showgrid="false"
     inkscape:zoom="1.67707"
     inkscape:cx="174.13819"
     inkscape:cy="24.53413"
     inkscape:window-x="-8"
     inkscape:window-y="-8"
     inkscape:window-maximized="1"
     inkscape:current-layer="svg825" /><title
     id="title815">Logo mingrana</title><metadata
     id="metadata817"><rdf:RDF><cc:Work
         rdf:about=""><dc:format>image/svg+xml</dc:format><dc:type
           rdf:resource="http://purl.org/dc/dcmitype/StillImage" /><dc:title>Logo mingrana</dc:title></cc:Work></rdf:RDF></metadata><rect
     style="opacity:1;fill:#4d4d4d;fill-opacity:1;stroke:none;stroke-width:1.51181102;stroke-linecap:round;stroke-linejoin:round;stroke-miterlimit:4;stroke-dasharray:none;stroke-dashoffset:0;stroke-opacity:1"
     id="rect4522"
     width="256"
     height="256"
     x="0"
     y="0" /><g
     transform="translate(-13.73,-13.73)"
     id="g823"><path
       d="m 84.038,99.166 -0.011,85.131 c 0,5.822 -4.739,10.557 -10.56,10.557 h -9.341 v 21.977 h 12.837 v 0.283 h 0.488 v 26.373 h 21.77 V 216.83 h 31.052 v 0.283 h 0.488 v 26.373 h 12.842 v 0.281 h 9.417 v -26.654 h 31.052 v 26.654 h 22.264 v -26.654 h 13.324 v -22.26 h -9.68 c -5.82,0 -10.56,-4.734 -10.56,-10.557 l 0.012,-85.131 c 0,-5.821 4.738,-10.56 10.56,-10.56 h 9.343 V 66.348 h -13.33 V 39.693 H 183.747 V 66.348 H 152.695 V 39.693 H 130.436 V 66.348 H 99.385 V 39.693 H 77.13 V 66.348 H 63.8 v 22.258 h 9.679 c 5.824,-10e-4 10.559,4.738 10.559,10.56 z"
       id="path819"
       inkscape:connector-curvature="0"
       style="fill:#9d9d9c" /><polygon
       points="180.66,101.68 141.94,157.02 102.79,101.73 102.79,181.78 111.09,181.78 111.09,127.97 141.96,171.52 172.37,128.13 172.37,181.78 180.66,181.78 "
       id="polygon821"
       style="fill:#ffffff" /></g></svg>